# xmcd
#
# Track frame offsets:
#	150
#	14161
#	26245
#	35516
#	47093
#	61432
#	75770
#	88466
#	102324
#	117058
#	129830
#	144259
#	160048
#	174201
#	185912
#	197452
#	212636
#	225108
#
# Disc length: 3186 seconds
#
# Revision: 1
# Processed by: cddbd v1.5.2PL0 Copyright (c) Steve Scherf et al.
# Submitted via: audiograbber 1.83.01
#
DISCID=e50c7012
DTITLE=Bing Crosby - Stardust - CD 1
DYEAR=2004
DGENRE=Oldies
TTITLE0=Don't fence me in
TTITLE1=Mona Lisa
TTITLE2=It's only a paper moon
TTITLE3=Tea for two
TTITLE4=Some enchanted evening
TTITLE5=Moonlight becomes you
TTITLE6=I'll be seeing you
TTITLE7=Sweet Georgia Brown
TTITLE8=Just one more chance
TTITLE9=Day by day
TTITLE10=It's always you
TTITLE11=Chattanoogie shoe shine boy
TTITLE12=I cried for you
TTITLE13=Smarty (You know it all)
TTITLE14=You are my sunshine
TTITLE15=I've got the world on a string
TTITLE16=Stardust
TTITLE17=Love me tonight
EXTD=
EXTT0=
EXTT1=
EXTT2=
EXTT3=
EXTT4=
EXTT5=
EXTT6=
EXTT7=
EXTT8=
EXTT9=
EXTT10=
EXTT11=
EXTT12=
EXTT13=
EXTT14=
EXTT15=
EXTT16=
EXTT17=
PLAYORDER=
